<?xml version="1.0" encoding="UTF-8" standalone="no"?>
<!-- Created with Inkscape (http://www.inkscape.org/) -->

<svg
   width="84.488052mm"
   height="19.226944mm"
   viewBox="0 0 84.488052 19.226944"
   version="1.1"
   id="svg1"
   xmlns="http://www.w3.org/2000/svg"
   xmlns:svg="http://www.w3.org/2000/svg">
  <defs
     id="defs1" />
  <g
     id="layer1"
     transform="translate(-50.327351,-70.240354)">
    <g
       id="g1"
       transform="matrix(0.38858637,0,0,0.38858637,53.851681,48.823714)">
      <path
         style="font-size:50.8px;font-family:'Patrick Hand';-inkscape-font-specification:'Patrick Hand';letter-spacing:0px;fill:#27cbce;stroke-width:0.264583"
         d="m -5.158019,69.28742 c 2.6416,0.440267 5.06306663,0.6604 7.2643999,0.6604 2.2013333,0 3.6068,-0.01693 4.2164,-0.0508 -0.067733,-2.573866 -0.1016,-5.046132 -0.1016,-7.416799 v -4.826 c 0,-0.846667 0.033867,-1.3716 0.1016,-1.5748 0.067733,-0.237067 0.2878667,-0.4572 0.6604,-0.6604 0.3725333,-0.2032 0.9144,-0.3048 1.6255999,-0.3048 1.0160001,0 1.5240002,0.6096 1.5240002,1.8288 V 74.92622 c 0,3.725333 -0.08467,7.8232 -0.2540002,12.2936 -0.033867,0.982133 -0.8636,1.4732 -2.4891999,1.4732 -0.8128,0 -1.2192,-0.491067 -1.2192,-1.4732 l 0.2032,-13.462 c -1.0837333,0.06773 -2.5738667,0.1016 -4.4704,0.1016 -1.86266661,0 -4.2163999,-0.2032 -7.0611999,-0.6096 0,4.4704 0.2032,9.144 0.6096,14.0208 0.033867,0.541867 -0.2032,0.9652 -0.7111999,1.27 -0.508,0.270933 -1.1514667,0.4064 -1.9304,0.4064 -0.7450667,0 -1.1514667,-0.389467 -1.2192,-1.1684 -0.4402667,-4.809067 -0.6604,-9.5504 -0.6604,-14.224 l 0.3048,-15.849599 c 0,-0.677333 0.254,-1.1684 0.762,-1.4732 0.508,-0.338667 1.0498667,-0.508 1.6256,-0.508 0.9482666,0 1.4223999,0.4572 1.4223999,1.3716 z m 36.931667,12.0396 0.0508,5.2324 c 0,0.6096 -0.287867,1.1684 -0.8636,1.6764 -0.541867,0.508 -1.083733,0.762 -1.625599,0.762 -0.778933,0 -1.27,-0.6096 -1.4732,-1.8288 -0.03387,-0.270933 -0.169333,-2.7432 -0.4064,-7.4168 -0.237067,-4.707467 -0.694267,-8.398933 -1.3716,-11.0744 -0.3048,-1.286933 -0.4572,-2.048932 -0.4572,-2.285999 0,-1.1176 0.677333,-1.6764 2.032,-1.6764 0.575733,0 1.032933,0.220133 1.3716,0.6604 0.338667,0.440267 0.541867,0.897467 0.6096,1.3716 0.1016,0.440267 0.186267,1.049866 0.254,1.828799 0.06773,0.778933 0.118532,1.27 0.152399,1.4732 0.7112,-1.693333 1.778,-2.963332 3.2004,-3.809999 1.4224,-0.846667 2.980267,-1.27 4.6736,-1.27 2.777067,0 4.1656,0.7112 4.1656,2.1336 0,0.711199 -0.254,1.286932 -0.762,1.727199 -0.474133,0.4064 -1.032933,0.6096 -1.6764,0.6096 -2.878667,0 -4.910667,0.9144 -6.096,2.7432 -1.185333,1.8288 -1.778,4.8768 -1.778,9.144 z M 52.093659,65.223421 c 1.794933,0 3.5052,0.524933 5.130799,1.5748 1.6256,1.049866 2.4384,2.353732 2.4384,3.911599 0,1.524 -0.6604,3.014133 -1.9812,4.4704 -1.320799,1.4224 -3.081866,2.286 -5.283199,2.5908 -0.948267,0.135467 -2.370667,0.2032 -4.2672,0.2032 0.372533,2.878667 1.100667,4.7752 2.1844,5.6896 0.338667,0.372533 0.795867,0.5588 1.3716,0.5588 2.099733,0 3.8608,-0.6604 5.283199,-1.9812 1.4224,-1.354667 2.4384,-2.032 3.048,-2.032 0.270933,0 0.677333,0.254 1.2192,0.762 0.541867,0.508 0.8128,0.982133 0.8128,1.4224 0,0.880533 -1.0668,2.150533 -3.2004,3.81 -0.948267,0.778933 -2.099733,1.439333 -3.454399,1.9812 -1.3208,0.508 -2.556933,0.762 -3.7084,0.762 -2.9464,0 -5.113867,-1.896533 -6.5024,-5.6896 -0.880533,-2.3368 -1.3208,-4.910667 -1.3208,-7.7216 0,-2.810933 0.6604,-5.2324 1.9812,-7.2644 1.3208,-2.031999 3.4036,-3.047999 6.2484,-3.047999 z m 0.254,3.505199 c -1.286933,0 -2.3876,0.728133 -3.302,2.1844 -0.338667,0.508 -0.6604,1.659467 -0.9652,3.4544 4.741333,0 7.112,-1.1684 7.112,-3.5052 0,-1.4224 -0.948267,-2.1336 -2.8448,-2.1336 z m 13.614437,14.8336 c -0.237067,-3.488267 -0.3556,-8.195733 -0.3556,-14.1224 0,-5.960533 0.08467,-9.821332 0.254,-11.582399 0.169333,-1.083733 0.9144,-1.794933 2.2352,-2.1336 1.3208,-0.372533 3.064933,-0.5588 5.2324,-0.5588 3.183467,0 5.858933,0.694267 8.0264,2.0828 2.201333,1.354667 3.302,3.369733 3.302,6.0452 0,2.201333 -0.3048,4.047066 -0.9144,5.537199 -0.6096,1.456267 -1.3716,2.54 -2.286,3.2512 -1.490133,1.151467 -3.691467,1.7272 -6.604,1.7272 -1.253067,0 -2.8956,-0.169333 -4.9276,-0.508 0.169333,6.773333 0.237067,11.040533 0.2032,12.8016 -0.03387,1.761067 -0.626533,2.6416 -1.778,2.6416 -0.745067,0 -1.2192,-0.135467 -1.4224,-0.4064 -0.2032,-0.270933 -0.338667,-0.4572 -0.4064,-0.5588 -0.06773,-0.135467 -0.135467,-0.321733 -0.2032,-0.5588 -0.06773,-0.237067 -0.118533,-0.423333 -0.1524,-0.5588 -0.03387,-0.169333 -0.06773,-0.4064 -0.1016,-0.7112 0,-0.3048 -0.01693,-0.541867 -0.0508,-0.7112 -0.03387,-0.508 -0.0508,-1.0668 -0.0508,-1.6764 z m 14.478,-20.116799 c 0,-1.388533 -0.745067,-2.472267 -2.2352,-3.2512 -1.490133,-0.8128 -3.081867,-1.2192 -4.7752,-1.2192 -1.693333,0 -2.878667,0.1524 -3.556,0.4572 -0.135467,1.998133 -0.2032,3.843867 -0.2032,5.5372 0,1.659467 0.06773,3.166533 0.2032,4.521199 0.9144,0.1016 1.540933,0.186267 1.8796,0.254 0.880533,0.1016 1.6256,0.1524 2.2352,0.1524 h 1.27 c 0.237067,-0.03387 0.6604,-0.08467 1.27,-0.1524 0.643467,-0.1016 1.100667,-0.254 1.3716,-0.4572 0.270933,-0.2032 0.6096,-0.474133 1.016,-0.8128 0.4064,-0.338666 0.694267,-0.728132 0.8636,-1.168399 0.440267,-1.2192 0.6604,-2.506133 0.6604,-3.8608 z m 8.890045,3.556 c 0.135467,-0.575733 0.423333,-1.049867 0.8636,-1.4224 0.440267,-0.4064 0.880533,-0.6096 1.3208,-0.6096 0.474133,0 0.829733,0.08467 1.0668,0.254 0.270933,0.169333 0.423333,0.321733 0.4572,0.4572 0.06773,0.135467 0.135467,0.372533 0.2032,0.7112 -0.2032,2.641599 -0.3048,5.029199 -0.3048,7.162799 0,2.099733 0.254,4.5212 0.762,7.2644 0.508,2.709333 1.0668,4.064 1.6764,4.064 0.9144,0 2.065867,-0.508 3.4544,-1.524 1.422399,-1.016 2.438399,-2.0828 3.047999,-3.2004 -0.4064,-4.8768 -0.6096,-9.059333 -0.6096,-12.547599 0,-0.7112 0.22013,-1.3208 0.6604,-1.8288 0.47413,-0.508 1.03293,-0.762 1.6764,-0.762 1.04987,0 1.5748,0.7112 1.5748,2.1336 0,2.404533 0.16933,5.977466 0.508,10.718799 0.37253,4.741333 0.74507,7.755467 1.1176,9.0424 0.0677,0.270933 0.1016,0.592667 0.1016,0.9652 0,0.338667 -0.23707,0.6604 -0.7112,0.9652 -0.44027,0.338667 -1.03293,0.508 -1.778,0.508 -0.7112,0 -1.18533,-0.4064 -1.4224,-1.2192 -0.0677,-0.677333 -0.23707,-1.693333 -0.508,-3.048 -2.37067,2.472267 -4.758266,3.7084 -7.162799,3.7084 -1.1176,0 -2.116667,-0.423333 -2.9972,-1.27 -0.880533,-0.846667 -1.5748,-1.998133 -2.0828,-3.4544 -0.880533,-2.810933 -1.3208,-5.452533 -1.3208,-7.9248 0,-2.472267 0.135467,-5.520266 0.4064,-9.143999 z m 26.974779,14.325599 0.0508,5.2324 c 0,0.6096 -0.28787,1.1684 -0.8636,1.6764 -0.54187,0.508 -1.08373,0.762 -1.6256,0.762 -0.77893,0 -1.27,-0.6096 -1.4732,-1.8288 -0.0339,-0.270933 -0.16933,-2.7432 -0.4064,-7.4168 -0.23707,-4.707467 -0.69427,-8.398933 -1.3716,-11.0744 -0.3048,-1.286933 -0.4572,-2.048932 -0.4572,-2.285999 0,-1.1176 0.67733,-1.6764 2.032,-1.6764 0.57573,0 1.03293,0.220133 1.3716,0.6604 0.33867,0.440267 0.54187,0.897467 0.6096,1.3716 0.1016,0.440267 0.18627,1.049866 0.254,1.828799 0.0677,0.778933 0.11853,1.27 0.1524,1.4732 0.7112,-1.693333 1.778,-2.963332 3.2004,-3.809999 1.4224,-0.846667 2.98027,-1.27 4.6736,-1.27 2.77707,0 4.1656,0.7112 4.1656,2.1336 0,0.711199 -0.254,1.286932 -0.762,1.727199 -0.47413,0.4064 -1.03293,0.6096 -1.6764,0.6096 -2.87867,0 -4.91067,0.9144 -6.096,2.7432 -1.18533,1.8288 -1.778,4.8768 -1.778,9.144 z m 21.03121,7.366 c -1.15147,0 -2.21827,-0.389467 -3.2004,-1.1684 l -0.6604,-0.5588 v 15.24 c -0.2032,0.67733 -0.5588,1.23613 -1.0668,1.6764 -0.508,0.47413 -1.04987,0.7112 -1.6256,0.7112 -0.88053,0 -1.3208,-0.59267 -1.3208,-1.778 V 67.407821 c 0.2032,-0.880533 0.44027,-1.507067 0.7112,-1.8796 0.3048,-0.372533 0.762,-0.5588 1.3716,-0.5588 0.64347,0 1.04987,0.1524 1.2192,0.4572 0.2032,0.270933 0.44027,1.049867 0.7112,2.3368 0.13547,-0.677333 0.67733,-1.303867 1.6256,-1.8796 0.94827,-0.575733 2.21827,-0.8636 3.81,-0.8636 3.4544,0 5.90973,1.253066 7.366,3.759199 1.45627,2.506133 2.1844,5.469467 2.1844,8.89 0,3.386667 -0.99907,6.079067 -2.9972,8.0772 -1.96427,1.964267 -4.6736,2.9464 -8.128,2.9464 z m -3.8608,-15.24 v 9.4488 c 0.2032,0.1016 0.44027,0.270933 0.7112,0.508 0.98213,0.880533 2.04893,1.3208 3.2004,1.3208 4.6736,0 7.0104,-2.404533 7.0104,-7.2136 0,-4.097867 -1.04987,-6.688667 -3.1496,-7.7724 -0.88053,-0.474133 -1.96427,-0.7112 -3.2512,-0.7112 -1.25307,0.169333 -2.31987,0.728133 -3.2004,1.6764 -0.88053,0.9144 -1.3208,1.8288 -1.3208,2.7432 z m 26.56837,-8.381999 c 2.4384,0 4.43653,1.1684 5.9944,3.505199 1.59173,2.3368 2.3876,5.147733 2.3876,8.4328 0,3.2512 -0.8128,6.028267 -2.4384,8.3312 -1.59173,2.302933 -3.72533,3.4544 -6.4008,3.4544 -2.6416,0 -4.7752,-1.1684 -6.4008,-3.5052 -1.6256,-2.370667 -2.4384,-4.995333 -2.4384,-7.874 0,-3.691467 0.74507,-6.637867 2.2352,-8.8392 1.59173,-2.336799 3.94547,-3.505199 7.0612,-3.505199 z m -0.6096,4.165599 c -1.4224,0 -2.5908,0.745067 -3.5052,2.2352 -0.9144,1.490133 -1.3716,3.064933 -1.3716,4.7244 0,2.573867 0.508,4.538133 1.524,5.8928 1.016,1.354667 2.16747,2.032 3.4544,2.032 2.30293,0 3.77613,-0.999067 4.4196,-2.9972 0.27093,-0.948267 0.4064,-2.1336 0.4064,-3.556 0,-5.554133 -1.64253,-8.3312 -4.9276,-8.3312 z m 12.954,2.2352 c 0,-1.998133 0.7112,-3.589866 2.1336,-4.775199 1.4224,-1.185333 3.06493,-1.778 4.9276,-1.778 1.89653,0 3.7084,0.338667 5.4356,1.016 1.7272,0.677333 2.5908,1.5748 2.5908,2.692399 0,0.575733 -0.22013,1.032933 -0.6604,1.3716 -0.44027,0.338667 -0.82973,0.508 -1.1684,0.508 h -0.762 c -0.16933,-0.03387 -0.84667,-0.3556 -2.032,-0.9652 -1.15147,-0.6096 -2.21827,-0.9144 -3.2004,-0.9144 -0.98213,0 -1.8288,0.254 -2.54,0.762 -0.67733,0.474133 -1.016,1.185333 -1.016,2.1336 0,0.948267 0.38947,1.693333 1.1684,2.2352 0.8128,0.541867 2.21827,1.016 4.2164,1.4224 1.99813,0.372533 3.52213,0.9144 4.572,1.6256 1.08373,0.7112 1.6256,2.032 1.6256,3.9624 0,2.810933 -0.74507,4.809067 -2.2352,5.9944 -1.45627,1.151467 -3.23427,1.7272 -5.334,1.7272 -2.09973,0 -3.89467,-0.287867 -5.3848,-0.8636 -1.45627,-0.575733 -2.1844,-1.439333 -2.1844,-2.5908 0,-1.3208 0.6604,-1.9812 1.9812,-1.9812 0.33867,0 1.08373,0.237067 2.2352,0.7112 1.15147,0.474133 2.286,0.7112 3.4036,0.7112 1.15147,0 2.01507,-0.3556 2.5908,-1.0668 0.6096,-0.745067 0.9144,-1.591733 0.9144,-2.54 0,-0.948267 -0.38947,-1.6256 -1.1684,-2.032 -0.77893,-0.440267 -1.96427,-0.795867 -3.556,-1.0668 -1.59173,-0.270933 -2.76013,-0.5588 -3.5052,-0.8636 -2.032,-0.8128 -3.048,-2.624667 -3.048,-5.4356 z m 26.00961,-6.248399 c 1.79493,0 3.5052,0.524933 5.1308,1.5748 1.6256,1.049866 2.4384,2.353732 2.4384,3.911599 0,1.524 -0.6604,3.014133 -1.9812,4.4704 -1.3208,1.4224 -3.08187,2.286 -5.2832,2.5908 -0.94827,0.135467 -2.37067,0.2032 -4.2672,0.2032 0.37253,2.878667 1.10067,4.7752 2.1844,5.6896 0.33867,0.372533 0.79587,0.5588 1.3716,0.5588 2.09973,0 3.8608,-0.6604 5.2832,-1.9812 1.4224,-1.354667 2.4384,-2.032 3.048,-2.032 0.27093,0 0.67733,0.254 1.2192,0.762 0.54187,0.508 0.8128,0.982133 0.8128,1.4224 0,0.880533 -1.0668,2.150533 -3.2004,3.81 -0.94827,0.778933 -2.09973,1.439333 -3.4544,1.9812 -1.3208,0.508 -2.55693,0.762 -3.7084,0.762 -2.9464,0 -5.11387,-1.896533 -6.5024,-5.6896 -0.88053,-2.3368 -1.3208,-4.910667 -1.3208,-7.7216 0,-2.810933 0.6604,-5.2324 1.9812,-7.2644 1.3208,-2.031999 3.4036,-3.047999 6.2484,-3.047999 z m 0.254,3.505199 c -1.28693,0 -2.3876,0.728133 -3.302,2.1844 -0.33867,0.508 -0.6604,1.659467 -0.9652,3.4544 4.74133,0 7.112,-1.1684 7.112,-3.5052 0,-1.4224 -0.94827,-2.1336 -2.8448,-2.1336 z"
         id="text1-5-1"
         aria-label="HirePurpose" />
      <path
         d="m 18.308216,56.393067 c 0.6096,0 2.232208,0.0847 2.774075,0.66047 0.541867,0.57574 0.09405,1.52909 -0.15595,2.17256 -0.220765,0.56822 -0.382925,1.0955 -0.992525,1.73897 -0.575733,0.64347 -1.185333,0.9652 -1.8288,0.9652 -0.643467,0 -1.236133,-0.27093 -1.778,-0.8128 -0.508,-0.54187 -1.54325,-2.12676 -1.54325,-2.97343 0,-1.6256 1.661783,-1.6155 3.42285,-1.75097 z m 4.0711,25.6817 -1.8867,4.4935 c -0.187825,0.3783 -0.463922,0.9975 -0.762,1.6256 -0.187592,0.24067 -0.612367,1.4846 -1.1881,1.4846 -0.846667,0 -2.849433,-4.98583 -3.9458,-7.7075 1.434733,-9.92847 1.5271,-11.21843 1.5271,-12.3699 0,-1.15147 0.0508,-2.55693 0.1524,-4.2164 0.06773,-0.6096 0.4572,-0.9144 1.1684,-0.9144 1.794933,0 2.501574,0.24199 2.738641,1.69826 0.1016,0.74507 0.174497,1.625 0.218691,2.33043 l 0.128256,1.89667 z"
         style="font-size:50.8px;font-family:'Patrick Hand';-inkscape-font-specification:'Patrick Hand';letter-spacing:0px;fill:#d40b0b;fill-opacity:1;stroke-width:0.264583"
         id="path1" />
    </g>
  </g>
</svg>
